<?xml version="1.0" standalone="no"?>
<!DOCTYPE svg PUBLIC "-//W3C//DTD SVG 20010904//EN"
 "http://www.w3.org/TR/2001/REC-SVG-20010904/DTD/svg10.dtd">
<svg version="1.0" xmlns="http://www.w3.org/2000/svg"
 width="300.000000pt" height="116.000000pt" viewBox="0 0 300.000000 116.000000"
 preserveAspectRatio="xMidYMid meet">
<metadata>
Created by potrace 1.10, written by Peter Selinger 2001-2011
</metadata>
<g transform="translate(0.000000,116.000000) scale(0.100000,-0.100000)"
fill="#ffffff" stroke="none">
<path d="M2579 1156 c-3 -3 -18 -7 -34 -11 -165 -31 -259 -55 -275 -71 -13
-15 -21 -57 -35 -192 l-17 -173 23 -25 c12 -13 30 -24 38 -25 9 0 -17 -13 -57
-28 -41 -15 -78 -34 -83 -42 -5 -8 -9 -100 -9 -205 0 -185 1 -191 23 -211 20
-20 187 -78 187 -66 0 3 6 1 13 -4 6 -6 44 -18 82 -28 39 -10 86 -31 106 -47
43 -33 62 -35 109 -9 178 95 200 112 200 150 0 26 -43 233 -54 261 -4 11 10
23 53 42 32 16 63 28 69 28 6 0 19 11 27 24 15 22 15 39 4 148 -12 130 -28
168 -71 168 -38 0 -57 22 -123 137 -91 159 -110 183 -144 183 -15 0 -30 -2
-32 -4z m141 -175 l92 -159 46 -9 47 -8 16 -125 c11 -89 12 -128 5 -136 -6 -7
-55 -31 -109 -54 -96 -42 -115 -62 -65 -68 23 -3 26 -10 50 -134 24 -118 25
-133 11 -143 -9 -6 -63 -38 -120 -69 l-105 -58 -32 31 c-27 27 -63 41 -209 84
-97 29 -178 55 -180 57 -3 3 -7 91 -10 195 l-5 191 101 34 c56 18 105 36 109
39 4 4 -19 17 -52 30 -52 21 -60 28 -60 50 0 35 31 325 36 330 1 2 76 19 166
38 89 18 164 36 167 38 2 3 5 5 7 5 1 0 44 -72 94 -159z"/>
<path d="M2443 1076 c-73 -17 -135 -34 -138 -37 -6 -7 -35 -247 -35 -294 1
-27 6 -33 63 -58 l62 -27 57 21 56 21 -40 77 c-85 161 -107 197 -132 220 -14
14 -26 29 -26 35 0 5 13 -3 29 -18 l29 -28 106 57 c58 31 106 59 106 61 0 2
-1 3 -2 3 -2 -1 -62 -15 -135 -33z m-51 -203 c82 -151 82 -152 52 -163 -37
-14 -69 -12 -110 7 l-36 18 6 85 c4 48 9 95 11 106 2 10 4 25 4 32 2 30 23 5
73 -85z"/>
<path d="M2505 1048 c-55 -32 -106 -63 -114 -67 -12 -7 -11 -14 6 -42 12 -19
46 -84 77 -146 31 -62 60 -115 65 -117 4 -3 31 37 61 88 l53 94 56 -14 c31 -7
61 -13 68 -14 6 0 -12 39 -41 88 -29 48 -65 111 -82 139 -16 29 -33 53 -39 52
-5 -1 -55 -28 -110 -61z m164 -67 c28 -49 51 -93 51 -98 0 -6 -17 -8 -38 -6
-44 5 -52 -2 -97 -85 -16 -31 -35 -57 -41 -59 -7 -2 -31 33 -54 79 -23 46 -52
98 -63 117 -20 33 -20 34 -1 45 10 6 28 16 39 23 11 6 39 20 61 31 23 11 45
25 48 31 19 30 45 8 95 -78z"/>
<path d="M2650 813 c-47 -79 -98 -168 -96 -170 1 -1 31 6 66 15 71 19 256 123
237 133 -13 7 -166 39 -185 39 -7 0 -17 -8 -22 -17z m99 -28 c9 -2 22 -4 29
-4 30 -2 10 -20 -83 -71 -33 -18 -85 -34 -85 -25 0 3 14 30 31 61 30 52 33 55
61 48 17 -3 38 -8 47 -9z"/>
<path d="M2787 720 c-54 -32 -100 -60 -102 -62 -2 -2 3 -37 11 -78 8 -41 14
-84 14 -94 0 -38 -10 -8 -26 77 -9 50 -21 87 -28 87 -6 0 -32 -6 -58 -13 l-47
-12 42 -46 c23 -25 57 -62 75 -83 l32 -37 106 47 106 48 -6 80 c-4 45 -10 95
-14 113 l-7 31 -98 -58z m89 -67 l6 -80 -67 -32 c-37 -17 -71 -31 -75 -31 -9
0 -30 87 -30 121 0 11 8 23 18 26 9 4 35 18 57 32 49 31 79 48 82 46 2 -1 6
-38 9 -82z m-222 -56 c14 -54 2 -58 -33 -9 l-19 28 23 2 c16 1 25 -5 29 -21z"/>
<path d="M2400 644 c-52 -19 -126 -46 -164 -61 l-69 -26 7 -66 c3 -36 6 -116
6 -177 l0 -111 138 -41 c75 -22 146 -44 157 -47 18 -6 18 -5 -3 14 -12 11 -48
27 -80 36 -31 9 -86 26 -122 38 l-65 22 -3 129 c-3 151 -1 159 30 146 13 -5
74 -27 137 -50 87 -31 116 -38 122 -28 4 7 7 13 6 15 -2 1 -66 25 -142 53 -77
29 -147 56 -155 61 -35 20 16 6 156 -45 107 -39 175 -57 243 -65 51 -7 95 -10
96 -9 2 2 -34 44 -80 95 -50 57 -85 104 -88 123 -4 16 -12 30 -19 29 -7 0 -56
-16 -108 -35z m104 -22 c4 -10 23 -36 44 -58 20 -22 47 -52 59 -67 27 -31 27
-31 -77 -18 -57 8 -221 62 -243 82 -5 4 29 19 75 34 45 16 84 31 86 34 6 16
51 10 56 -7z"/>
<path d="M2220 360 l0 -128 85 -26 c47 -15 93 -30 103 -33 16 -6 16 -5 0 13
-16 19 -15 24 27 114 24 52 42 96 41 97 -1 1 -59 22 -129 47 l-127 45 0 -129z
m74 75 c6 -1 20 -6 31 -10 11 -5 40 -16 65 -26 30 -11 44 -22 42 -33 -5 -30
-64 -146 -74 -146 -5 0 -34 7 -64 16 l-54 15 0 100 c0 98 1 100 21 94 12 -4
27 -8 33 -10z"/>
<path d="M2467 325 c-26 -57 -47 -107 -47 -113 0 -11 160 -162 171 -162 4 0 9
7 13 15 3 8 24 39 46 69 l41 54 -89 120 -89 119 -46 -102z m143 -64 c27 -35
50 -68 50 -73 0 -7 -11 -23 -55 -74 l-20 -24 -55 46 c-88 74 -88 73 -45 162
l36 76 19 -24 c11 -14 42 -54 70 -89z"/>
<path d="M2558 389 c92 -127 149 -193 172 -199 14 -4 37 -10 51 -13 l25 -6
-22 108 c-12 60 -24 113 -28 119 -3 5 -40 12 -83 16 -43 4 -93 9 -112 13 l-34
6 31 -44z m158 -14 c17 -4 24 -17 35 -67 12 -57 13 -87 4 -96 -12 -13 -50 19
-97 81 -79 104 -78 99 -16 92 29 -3 62 -8 74 -10z"/>
<path d="M2656 119 c-26 -33 -46 -62 -44 -64 2 -1 45 21 96 50 l92 53 -44 11
c-25 6 -47 11 -49 11 -2 0 -25 -27 -51 -61z"/>
<path d="M177 1105 c-77 -27 -126 -100 -134 -196 -6 -71 10 -121 50 -159 62
-58 152 -60 212 -4 l29 26 18 -25 c23 -32 76 -51 109 -39 13 5 49 7 79 6 53
-2 55 -3 52 -29 -4 -35 21 -62 57 -63 38 -1 71 31 71 68 0 27 2 29 25 20 30
-11 69 1 103 32 l22 21 23 -20 c30 -28 91 -46 128 -38 17 4 46 20 64 36 l34
30 31 -33 c27 -28 39 -33 77 -33 37 0 49 5 67 28 22 28 22 28 40 8 24 -27 80
-44 108 -35 13 4 29 9 37 10 7 2 26 15 42 30 26 25 29 26 29 8 0 -30 20 -44
61 -44 27 0 41 6 52 23 l16 22 16 -22 c23 -32 87 -32 109 -1 9 12 16 30 16 40
0 10 5 18 10 18 6 0 10 -4 10 -9 0 -21 61 -69 95 -75 27 -5 48 -2 80 14 49 24
69 49 79 100 4 19 9 48 13 63 8 39 -23 103 -62 127 -18 11 -49 20 -70 20 -39
0 -98 -30 -115 -58 -8 -15 -14 -12 -44 20 l-34 37 -81 -3 c-89 -3 -121 -19
-121 -64 0 -23 -2 -22 -37 18 -32 35 -45 43 -85 47 -36 4 -55 1 -81 -14 l-33
-20 -27 21 c-15 12 -27 29 -27 37 0 24 -21 39 -55 39 -30 0 -65 -25 -65 -46 0
-6 -14 -20 -30 -33 l-31 -22 -26 20 c-48 39 -140 24 -180 -29 -10 -13 -13 -13
-30 6 -30 34 -54 41 -132 39 -78 -3 -101 -16 -101 -57 0 -22 -27 -13 -35 11
-3 10 -20 26 -39 36 -42 23 -116 16 -156 -13 l-28 -21 -6 24 c-10 39 -64 94
-104 105 -46 12 -48 12 -95 -5z m120 -41 c27 -17 48 -49 57 -86 6 -27 5 -28
-31 -28 -33 0 -40 5 -53 33 -11 23 -23 33 -42 35 -36 4 -64 -41 -74 -114 -7
-58 5 -89 36 -99 25 -8 66 16 74 43 5 14 14 17 41 14 41 -5 43 -12 14 -59 -27
-43 -66 -63 -122 -63 -78 0 -127 59 -127 152 1 145 123 238 227 172z m967 -35
c-7 -40 -7 -41 22 -37 24 2 29 0 26 -17 -6 -37 -10 -43 -35 -38 -31 6 -33 2
-42 -74 l-7 -63 29 0 c27 0 29 -3 25 -30 -4 -28 -7 -30 -50 -30 -51 0 -82 21
-82 54 0 12 6 49 14 84 12 61 12 63 -6 59 -16 -5 -19 -1 -16 26 2 26 7 31 24
29 18 -2 23 4 28 32 6 30 11 35 39 39 18 2 33 5 35 5 1 1 -1 -16 -4 -39z
m-710 -39 c42 -15 49 -41 35 -128 -6 -42 -11 -87 -11 -99 0 -19 -6 -23 -34
-23 -27 0 -34 4 -34 20 0 20 0 20 -20 0 -44 -44 -130 -15 -130 45 0 53 35 80
119 91 46 6 52 9 49 28 -4 29 -51 34 -70 7 -11 -15 -20 -18 -47 -13 l-34 7 27
32 c15 17 37 34 49 36 41 8 76 7 101 -3z m179 -18 l-6 -24 26 26 c67 67 140
-12 116 -125 -19 -87 -98 -139 -143 -94 -20 21 -26 19 -26 -9 0 -13 -3 -38 -6
-55 -6 -28 -10 -31 -43 -31 l-37 0 17 98 c9 53 22 129 28 167 l12 70 34 0 c31
0 34 -2 28 -23z m330 17 c27 -12 50 -45 42 -59 -9 -15 -45 -12 -61 5 -19 19
-48 19 -63 1 -14 -17 -9 -20 46 -35 54 -15 73 -34 73 -76 0 -50 -46 -85 -112
-85 -41 0 -54 5 -79 29 -16 16 -29 34 -29 40 0 18 67 13 74 -5 8 -22 80 -15
84 8 2 13 -6 19 -35 24 -72 13 -93 31 -93 80 0 67 81 106 153 73z m453 -23
c28 -28 34 -42 34 -75 0 -88 -54 -151 -131 -151 -99 0 -141 137 -67 217 50 55
115 58 164 9z m161 7 c-4 -22 -4 -22 25 2 35 29 58 31 87 8 27 -23 29 -40 12
-150 l-14 -93 -39 0 c-33 0 -38 3 -34 18 7 23 26 142 26 165 0 23 -46 23 -59
-1 -5 -9 -15 -54 -21 -100 l-12 -82 -40 0 c-33 0 -38 3 -34 18 3 9 12 62 21
117 21 128 17 120 54 120 28 0 32 -3 28 -22z m347 17 c31 -11 56 -58 56 -102
l0 -33 -80 3 c-78 3 -80 3 -80 -20 0 -47 49 -65 72 -28 13 21 43 26 66 11 18
-11 -1 -42 -39 -65 -80 -47 -169 5 -169 99 0 102 86 169 174 135z m-1774 -29
c0 -27 21 -41 61 -41 56 0 71 -8 58 -31 -8 -15 -14 -17 -29 -9 -34 18 -78 12
-95 -14 -22 -33 -52 -40 -61 -14 -9 29 5 105 22 122 18 18 44 10 44 -13z m890
-55 c0 -15 -14 -35 -21 -30 -15 9 -10 34 6 34 8 0 15 -2 15 -4z m142 -46 c-2
-16 -9 -30 -14 -30 -6 0 -8 10 -4 23 3 12 6 28 6 35 0 7 4 11 8 8 5 -3 7 -19
4 -36z m411 -55 c-7 -21 -12 -19 -10 4 0 11 5 18 9 15 4 -3 5 -11 1 -19z"/>
<path d="M490 862 c-28 -4 -60 -29 -60 -47 0 -7 6 -18 14 -24 21 -17 50 1 66
39 15 35 14 37 -20 32z"/>
<path d="M746 935 c-18 -18 -29 -69 -24 -111 4 -36 41 -46 57 -15 19 34 25
109 11 126 -16 19 -25 19 -44 0z m15 -85 l-10 -25 0 27 c-1 14 2 35 6 45 7 17
8 17 11 -2 1 -12 -2 -32 -7 -45z"/>
<path d="M1409 934 c-9 -10 -14 -41 -14 -78 l0 -61 30 0 c28 0 31 4 43 54 10
40 11 61 3 78 -12 27 -43 30 -62 7z m33 -68 c-2 -20 -8 -36 -13 -36 -10 0 -12
63 -3 73 13 13 20 -3 16 -37z"/>
<path d="M1952 944 c-38 -26 -28 -44 24 -44 38 0 45 3 40 16 -3 9 -6 17 -6 19
0 3 -8 9 -18 14 -14 7 -25 6 -40 -5z"/>
<path d="M1070 500 c-12 -12 -20 -33 -20 -54 0 -18 -5 -47 -11 -64 l-11 -31
-30 34 c-48 56 -118 64 -183 21 -20 -13 -24 -13 -37 4 -13 14 -30 18 -90 16
-72 -1 -75 0 -94 29 -10 16 -30 35 -44 42 -27 14 -187 18 -207 5 -19 -12 -29
-49 -54 -206 l-23 -148 23 -19 c30 -24 73 -24 95 0 9 10 20 38 24 62 l7 44 57
5 c32 3 63 11 70 18 27 27 35 13 27 -45 -7 -53 0 -91 19 -94 60 -10 72 -8 90
16 11 14 23 49 26 79 8 63 36 100 36 48 0 -93 73 -159 162 -148 l48 7 0 -35
c0 -47 33 -70 84 -60 47 8 79 47 96 117 l13 57 19 -31 c31 -50 119 -75 171
-48 12 7 34 25 49 40 l27 28 39 -40 c34 -33 46 -39 81 -39 51 0 92 20 120 57
16 22 20 24 21 10 1 -61 130 -94 164 -41 23 34 17 76 -12 89 -19 8 -21 15 -16
40 4 16 10 31 15 33 30 12 59 47 59 72 0 28 -22 60 -41 60 -5 0 -9 11 -9 25 0
25 -25 45 -58 45 -20 0 -62 -39 -62 -57 0 -6 -12 -19 -27 -28 -22 -15 -30 -16
-47 -5 -65 41 -136 30 -187 -27 -21 -25 -34 -33 -37 -24 -8 24 -62 69 -91 74
-41 8 -89 -8 -123 -40 l-29 -28 7 62 c5 45 3 67 -6 78 -18 22 -76 19 -100 -5z
m90 -19 c0 -5 -3 -22 -6 -37 -5 -27 -10 -29 -45 -29 -29 0 -38 3 -34 13 3 8 5
25 5 38 0 21 4 24 40 24 22 0 40 -4 40 -9z m-599 -30 c33 -34 38 -75 14 -121
-21 -40 -63 -60 -129 -60 l-55 0 -7 -60 -7 -60 -41 0 -42 0 23 133 c12 72 25
147 28 165 l6 32 90 0 c87 0 92 -1 120 -29z m1243 -20 l-6 -38 33 5 c27 4 31
2 26 -12 -4 -10 -7 -24 -7 -32 0 -9 -11 -14 -29 -14 -33 0 -37 -6 -46 -85 l-8
-58 31 5 c29 4 31 3 25 -21 -9 -38 -12 -41 -43 -41 -44 0 -79 17 -85 42 -3 13
1 53 8 91 14 65 14 67 -5 67 -30 0 -21 54 10 58 12 2 22 7 22 12 0 32 20 55
49 57 31 2 31 2 25 -36z m-1109 -58 l-7 -28 22 28 c12 15 29 27 39 27 13 0 16
-7 13 -34 -3 -27 -10 -36 -29 -41 -29 -7 -49 -49 -59 -123 l-7 -52 -38 0 c-22
0 -39 1 -39 3 0 1 9 56 20 122 11 66 20 121 20 123 0 1 16 2 36 2 34 0 36 -1
29 -27z m268 6 c81 -63 38 -219 -64 -235 -95 -15 -157 81 -115 180 30 72 122
101 179 55z m177 -1 c-2 -67 -48 -279 -65 -297 -24 -28 -105 -30 -105 -3 0 24
12 39 35 43 16 4 22 20 37 109 30 186 24 170 63 170 30 0 35 -3 35 -22z m211
12 c25 -14 49 -62 49 -100 l0 -30 -80 0 c-78 0 -80 -1 -80 -25 0 -31 32 -50
60 -35 11 6 20 15 20 20 0 6 16 10 35 10 40 0 43 -7 15 -43 -29 -37 -83 -52
-130 -38 -88 26 -101 142 -25 218 27 27 41 33 75 33 23 0 50 -5 61 -10z m283
-21 c38 -45 35 -69 -9 -69 -28 0 -35 4 -35 19 0 26 -38 38 -58 18 -19 -20 -29
-121 -13 -132 19 -11 59 3 65 23 5 14 14 17 36 14 35 -5 35 -4 15 -42 -16 -31
-61 -60 -93 -60 -67 0 -112 48 -112 120 0 83 53 140 130 140 42 0 52 -4 74
-31z m-55 -78 c8 -14 5 -23 -14 -41 l-25 -23 0 35 c0 50 20 65 39 29z m87 -28
c-10 -10 -19 5 -10 18 6 11 8 11 12 0 2 -7 1 -15 -2 -18z m-674 -115 c-7 -7
-12 -8 -12 -2 0 14 12 26 19 19 2 -3 -1 -11 -7 -17z"/>
<path d="M416 408 c-3 -7 -7 -28 -10 -45 -5 -33 -5 -33 37 -33 47 0 67 13 67
45 0 12 -5 26 -12 33 -16 16 -78 15 -82 0z m59 -38 c-3 -5 -13 -10 -21 -10 -8
0 -14 5 -14 10 0 6 9 10 21 10 11 0 17 -4 14 -10z"/>
<path d="M861 328 c-28 -77 -20 -138 19 -138 29 0 52 52 48 108 -3 43 -5 47
-30 50 -22 3 -30 -2 -37 -20z m39 -42 c0 -13 -3 -32 -6 -41 -10 -25 -21 0 -16
35 5 36 22 40 22 6z"/>
<path d="M1274 352 c-6 -4 -16 -17 -23 -29 -11 -22 -10 -23 34 -23 37 0 45 3
45 18 0 32 -31 51 -56 34z"/>
</g>
</svg>
