<svg xmlns="http://www.w3.org/2000/svg" width="162" height="59" class="logo"><path fill="#fff" fill-rule="evenodd" d="M116.269 26.572c0 12.127-7.022 18.428-18.845 18.428C85.602 45 79 38.699 79 26.572V.713h10.202V25.86c0 6.182 2.641 9.927 8.462 9.927 5.762 0 8.403-3.745 8.403-9.927V.713h10.202v25.859zM162 40.958C158.16 43.454 152.878 45 147.837 45c-14.344 0-24.066-9.57-24.066-22.47C123.77 9.57 133.493 0 147.837 0c5.1 0 9.782 1.486 13.743 3.804l-3.12 8.56c-3.242-1.783-6.903-2.912-10.503-2.912-8.222 0-13.324 4.993-13.324 13.078 0 8.084 5.102 13.078 13.324 13.078 3.6 0 7.681-1.19 10.982-3.21l3.061 8.56zM52.59 21.198c0 .588-.514 1.176-.734 1.396 0 0 .073-.22.147-.294 0 0 0-.073-.074-.073 0 0-.073.147-.147.147 0-.441.368-.956.662-1.47.073.073-.441 1.176-.441 1.25l.661-1.177v.147c0 .073 0 .073-.073.073zm-3.676 5.22c0 .147 0 .147-.147.147 0-.073.147-.22.294-.367v.073c0 .074 0 .22-.073.22l-.074-.073zM59.17 40.59c.073-.515.22-.956.22-1.323v-.221c-.367.073-.514 1.177-.514 1.177 0 .147 0 .22.073.367a7.228 7.228 0 0 0-.367 1.177c.073.147.073.22.073.367s-.073.295-.22.295v-.221c0-.588.22-1.177.22-1.765v-.294c-.147.368-.368.735-.368 1.177v.147c-.294.44-.735 2.72-.735 3.603 0 .147 0 .294.074.44 0-.073.22-.073.22-.293v-.147c0-.074 0-.074.147-.147v.147c0 .22-.073.294-.073.367h.147c.22-.073.22-.147.294-.367l.073.22c.074 0 .074-.073.074-.147 0-.147-.147-.514-.147-.662h.073c-.073-.073-.073-.147-.073-.22 0-.294.22-.588.22-.883 0-.147-.073-.22-.073-.367-.22.515-.147.882-.294 1.103-.074 0-.074 0-.074-.074v-.294c.147-.22 0-.956.368-1.176v.294c.294-.147.22-.515.294-.81.074 0 .147-.073.147-.073a.74.74 0 0 0-.073-.22c.22-.147.22-.589.367-.883 0-.073-.073-.294-.073-.294zm-1.03 6.03c-.073.22 0 .588-.294.882 0 0 0-.147-.073-.147-.147.441-.22.956-.22 1.47v.369c.22-.147.146-.956.44-1.177 0 0-.073-.22-.147-.368a.893.893 0 0 0 .353-.339c-.059.195-.059.487-.059.707 0 .074 0 .147.074.22.22-.146.294-.514.294-.882v-.294c.147-.147.147-.368.147-.368-.073-.147-.073-.44-.147-.514l-.22.735c0-.147-.074-.22-.148-.294zm.073.664v-.002a.65.65 0 0 1-.014.028l.014-.026zm-.073-.664s.074-.074.074-.294c-.147.073-.22.147-.22.22 0 0 0 .074.073.074h.073zm-1.47 5.368c.147-.294.22-1.03.22-1.47v-.148c.147-.515.441-.809.441-1.176v-.221c-.514 0-.808 2.28-.808 2.941 0 .074.147.074.147.074zm1.007-6.176c-.208.024-.346.387-.346.955v.368c-.147.294-.22.882-.22 1.397v.294c.441 0 .073-2.5.809-2.5-.102-.408-.204-.498-.233-.514h-.01zm1.934-7.575c.074-.735.22-1.47.515-2.353-.589.294-.736 1.324-.736 1.985v.147l-.147.074c.22.147 0 .368.147.368s0-.22.221-.22zm-2.574 18.604c.147-.073.147-.147.147-.294v-.441c0-.147 0-.22.074-.368-.294.074-.294.294-.368.294 0-.515.074-.735-.147-1.103-.073.22-.073.441-.073.662v1.03c.147.22.367.147.367.22zm0-3.235c0-.221.147-.736.147-1.03l-.073-.147c0-.147.147-.22.147-.368 0-.073-.074-.147-.147-.22 0-.147.147-.294.147-.441 0 0 0-.074-.074-.147-.073.44-.294.955-.294 1.617.074.074.074.147.074.22 0 .369-.147.663-.147.81v.073c.073 0 .147-.073.147-.073v-.147c0-.074 0-.074.073-.147zm-.588 1.69s.074 0 .074-.073c0 0-.074-.147-.074-.22 0-.662.147-1.544.294-2.353l-.294.073c0 .368-.073.736-.073 1.177v.294c-.074.147-.074.22-.074.368 0 .22.074.44.147.735zm3.824-23.162c.22-.294.515-.736.515-1.25v-.147c-.368-.074-.515 1.03-.515 1.397zm-1.177 5.882c0-.588.22-1.176.22-1.764-.073.22-.293.514-.293.809 0 .073 0 .22.073.294-.073 0-.147.147-.147.294s.074.294.147.367zm-.735 14.34c-.074.073-.147.147-.22.147-.074 0-.148-.147-.148-.295 0-.22.074-.588.22-.735 0 .294.074.515.148.883zm.294-12.722v.147c.294-.44.22-.809.294-1.176-.147.294-.294.588-.294 1.03zM57.33 58.753v-.147c0-.22-.073-.368-.073-.588-.22.22-.147.44-.294.514.147 0 .147.221.367.221zm.883-1.177c.22-.22.22-.514.22-.661l-.22.073c0 .074-.074.294-.074.441 0 .074 0 .074.074.147zm-.735-7.868v.294c0 .148 0 .295-.148.295-.073-.221-.073-.442-.073-.589h.22zm1.103-3.823c0-.147.073-.295.073-.589l.22-.147c0 .294-.22.589-.293.883v-.147zm-1.986 6.618c-.22 0-.147-.295-.147-.221 0-.147.147-.147.22-.22 0 .146.074.44.074.44h-.147zm.809.073a.562.562 0 0 0 .147-.368c0-.147-.073-.294-.073-.367v.073c0 .147-.148.368-.148.515 0 .074 0 .147.074.147zm-10.29-21.841c-1.38 1.884-2.909 3.738-4.45 5.17-1.618 1.47-3.824 2.426-6.545 2.426-2.647 0-5.735-1.25-5.735-6.25 0-2.574.367-5.442.367-6.545v-.294c-1.911 2.573-5 10.956-9.927 10.956-4.191 0-5.147-3.456-5.147-9.706V22.08C12.221 26.712 9.5 38.037 6.044 38.037c-3.53 0-5.883-3.677-5.883-6.545 0-4.044.81-7.794 1.839-12.354.515-2.426 2.206-5.368 5.662-5.368 1.47 0 3.603-.147 3.603 1.03.074.809-.368 1.765-.882 3.088-1.324 3.31-2.06 6.913-2.28 10.442 2.28-3.824 5.956-12.721 9.78-12.721.22 0 .515 0 .735.073 2.795.81 4.339.81 4.633 3.089.368 3.015.22 7.647.588 11.25 1.765-2.059 5.81-11.912 9.265-11.912 2.5 0 5.736.368 5.736 6.25 0 3.015-.441 7.574-.441 9.34 0 .66.073 1.029.22 1.029 1.372 0 5.28-4.993 9.04-10.521.787-3.19 2.147-6.209 3.314-7.716.441-.588 1.765-1.03 2.794-1.03.883 0 1.324.663 1.324 1.545 0 2.647-3.75 6.912-3.75 13.31 0 1.103.294 1.911 1.103 1.911 2.647.074 7.794-11.618 10.442-14.927.956-1.103 3.53-1.912 3.823-1.912 1.103 0 2.133 1.25 2.5 3.015.074.515.148 1.177.148 1.985 0 9.854-4.306 17.657-4.306 32.29 0 .074 0 .148-.073.148-.147 0 0-.22-.147-.22-.22 0-.147.22-.441.293-.074-.294-.147-.367-.22-.367-.295 0-.59 1.25-.883 1.397-.515 0-.81 0-.81.367 0 .221 0 .442.074.515a.76.76 0 0 1-.294-.073c-.147 0-.147.073-.22.147-.074-.147-.074-.221-.147-.221-.442 0-.515.662-.736.662-.073 0-.073-.074-.22-.074-.221 0-.295.442-.442.883h-.147c-.367 0-.22.956-2.647.956-.588 0-1.765-.074-1.765-4.927 0-.515 0-1.03.074-1.25v-.22c0-.368.073-.736.22-1.25 0-.295-.073-.59-.073-.883 0-.147.073-.368.22-.441 0-.295-.073-.589-.073-.81 0-1.544-.379 4.785-.379 3.461v-.588c0-.515.074-.956.294-1.25.368-3.31 1.545-7.06 1.545-10.074 0 0-.221.073-.221-.074.22-.956.735-1.691.735-2.426h-.073c-.074 0 0 .22-.294.294 1.03-5.368.492-1.19 1.448-6.558-1.985 2.353-4.706 5.147-7.28 5.147-3.181 0-4.581-1.883-4.962-4.507z"/></svg>