<?xml version="1.0" encoding="UTF-8"?>
<svg width="24px" height="24px" viewBox="0 0 24 24" version="1.1" xmlns="http://www.w3.org/2000/svg" xmlns:xlink="http://www.w3.org/1999/xlink">
    <!-- Generator: Sketch 59.1 (86144) - https://sketch.com -->
    <title>2019_Canvas_Bug_Box_Gray</title>
    <desc>Created with Sketch.</desc>
    <g id="Navigation-bar-update" stroke="none" stroke-width="1" fill="none" fill-rule="evenodd">
        <g id="navbar-wo-icon-name" transform="translate(-965.000000, -23.000000)" fill="#FFFFFF" fill-rule="nonzero">
            <g id="--Masthead--">
                <g id="2019_Canvas_Bug_Box_Gray" transform="translate(965.000000, 23.000000)">
                    <g id="Group">
                        <path d="M3.54716981,12.0150943 C3.54716981,10.2490566 2.21886792,8.8 0.513207547,8.58867925 C0.226415094,9.6754717 0.0754716981,10.8226415 0.0754716981,12.0150943 C0.0754716981,13.1924528 0.226415094,14.3396226 0.513207547,15.4415094 C2.23396226,15.2301887 3.54716981,13.7811321 3.54716981,12.0150943 Z" id="Path"></path>
                        <path d="M5.55471698,10.9433962 C4.9509434,10.9433962 4.46792453,11.4264151 4.46792453,12.0301887 C4.46792453,12.6339623 4.9509434,13.1169811 5.55471698,13.1169811 C6.15849057,13.1169811 6.64150943,12.6339623 6.64150943,12.0301887 C6.64150943,11.4264151 6.15849057,10.9433962 5.55471698,10.9433962 Z" id="Path"></path>
                        <path d="M20.4981132,12.0150943 C20.4981132,13.7811321 21.8264151,15.2301887 23.5320755,15.4415094 C23.8188679,14.354717 23.9698113,13.2075472 23.9698113,12.0150943 C23.9698113,10.8377358 23.8188679,9.69056604 23.5320755,8.58867925 C21.8113208,8.81509434 20.4981132,10.2641509 20.4981132,12.0150943 Z" id="Path"></path>
                        <path d="M18.490566,10.9433962 C17.8867925,10.9433962 17.4037736,11.4264151 17.4037736,12.0301887 C17.4037736,12.6339623 17.8867925,13.1169811 18.490566,13.1169811 C19.0943396,13.1169811 19.5773585,12.6339623 19.5773585,12.0301887 C19.5773585,11.4264151 19.0792453,10.9433962 18.490566,10.9433962 Z" id="Path"></path>
                        <path d="M12,20.5283019 C10.2339623,20.5283019 8.78490566,21.8566038 8.57358491,23.5622642 C9.66037736,23.8490566 10.8075472,24 12,24 C13.1773585,24 14.3245283,23.8490566 15.4264151,23.5622642 C15.2150943,21.8415094 13.7660377,20.5283019 12,20.5283019 Z" id="Path"></path>
                        <path d="M12,17.4339623 C11.3962264,17.4339623 10.9132075,17.9169811 10.9132075,18.5207547 C10.9132075,19.1245283 11.3962264,19.6075472 12,19.6075472 C12.6037736,19.6075472 13.0867925,19.1245283 13.0867925,18.5207547 C13.0867925,17.9169811 12.6037736,17.4339623 12,17.4339623 Z" id="Path"></path>
                        <path d="M12,3.57735849 C13.7660377,3.57735849 15.2150943,2.2490566 15.4264151,0.543396226 C14.3396226,0.256603774 13.1924528,0.105660377 12,0.105660377 C10.8226415,0.105660377 9.6754717,0.256603774 8.57358491,0.543396226 C8.78490566,2.2490566 10.2339623,3.57735849 12,3.57735849 Z" id="Path"></path>
                        <path d="M12,4.49811321 C11.3962264,4.49811321 10.9132075,4.98113208 10.9132075,5.58490566 C10.9132075,6.18867925 11.3962264,6.67169811 12,6.67169811 C12.6037736,6.67169811 13.0867925,6.18867925 13.0867925,5.58490566 C13.0867925,4.98113208 12.6037736,4.49811321 12,4.49811321 Z" id="Path"></path>
                        <path d="M18.0075472,18.0226415 C16.7698113,19.2754717 16.6641509,21.2226415 17.7207547,22.5811321 C19.7132075,21.4037736 21.3886792,19.7433962 22.5660377,17.7358491 C21.2075472,16.6792453 19.245283,16.7849057 18.0075472,18.0226415 Z" id="Path"></path>
                        <path d="M15.8188679,15.8339623 C15.3962264,16.2566038 15.3962264,16.9358491 15.8188679,17.3584906 C16.2415094,17.7811321 16.9207547,17.7811321 17.3433962,17.3584906 C17.7660377,16.9358491 17.7660377,16.2566038 17.3433962,15.8339623 C16.9207547,15.4113208 16.2415094,15.4113208 15.8188679,15.8339623 Z" id="Path"></path>
                        <path d="M6.02264151,6.03773585 C7.26037736,4.8 7.36603774,2.83773585 6.30943396,1.47924528 C4.31698113,2.65660377 2.64150943,4.31698113 1.46415094,6.3245283 C2.82264151,7.38113208 4.76981132,7.29056604 6.02264151,6.03773585 Z" id="Path"></path>
                        <path d="M6.67169811,6.68679245 C6.2490566,7.10943396 6.2490566,7.78867925 6.67169811,8.21132075 C7.09433962,8.63396226 7.77358491,8.63396226 8.19622642,8.21132075 C8.61886792,7.78867925 8.61886792,7.10943396 8.19622642,6.68679245 C7.77358491,6.27924528 7.09433962,6.27924528 6.67169811,6.68679245 Z" id="Path"></path>
                        <path d="M17.9924528,6.02264151 C19.2301887,7.26037736 21.1924528,7.36603774 22.5509434,6.30943396 C21.3735849,4.31698113 19.7132075,2.64150943 17.7056604,1.46415094 C16.6641509,2.82264151 16.754717,4.78490566 17.9924528,6.02264151 Z" id="Path"></path>
                        <path d="M17.3433962,8.21132075 C17.7660377,7.78867925 17.7660377,7.10943396 17.3433962,6.68679245 C16.9207547,6.26415094 16.2415094,6.26415094 15.8188679,6.68679245 C15.3962264,7.10943396 15.3962264,7.78867925 15.8188679,8.21132075 C16.2264151,8.63396226 16.9207547,8.63396226 17.3433962,8.21132075 Z" id="Path"></path>
                        <path d="M6.00754717,18.0075472 C4.76981132,16.7698113 2.80754717,16.6641509 1.4490566,17.7207547 C2.62641509,19.7132075 4.28679245,21.3886792 6.29433962,22.5660377 C7.3509434,21.2075472 7.26037736,19.2603774 6.00754717,18.0075472 Z" id="Path"></path>
                        <path d="M6.67169811,15.8188679 C6.2490566,16.2415094 6.2490566,16.9207547 6.67169811,17.3433962 C7.09433962,17.7660377 7.77358491,17.7660377 8.19622642,17.3433962 C8.61886792,16.9207547 8.61886792,16.2415094 8.19622642,15.8188679 C7.77358491,15.3962264 7.09433962,15.3962264 6.67169811,15.8188679 Z" id="Path"></path>
                    </g>
                </g>
            </g>
        </g>
    </g>
</svg>