<?xml version="1.0" encoding="UTF-8"?>
<svg width="222px" height="47px" viewBox="0 0 222 47" version="1.1" xmlns="http://www.w3.org/2000/svg" xmlns:xlink="http://www.w3.org/1999/xlink">
    <!-- Generator: sketchtool 57.1 (101010) - https://sketch.com -->
    <title>DB0104A1-5489-410B-8B5F-3839F70F7D57</title>
    <desc>Created with sketchtool.</desc>
    <g id="Page-1" stroke="none" stroke-width="1" fill="none" fill-rule="evenodd">
        <g id="1-w/-notification" transform="translate(-60.000000, -4778.000000)" fill="#FFFFFF">
            <g id="--Footer--" transform="translate(16.000000, 4659.000000)">
                <g id="Logo/Primary-Inline" transform="translate(44.000000, 119.000000)">
                    <path d="M67.8419473,16.9935552 C63.9413135,16.9935552 61.6400177,14.7939551 61.6400177,10.7355051 L61.6400177,1.0824883 L64.3040177,1.0824883 L64.3040177,10.5435884 C64.3040177,13.2343385 65.6258557,14.5589551 67.8849403,14.5589551 C70.1229192,14.5589551 71.4650812,13.2131885 71.4650812,10.5435884 L71.4650812,1.0824883 L74.1290812,1.0824883 L74.1290812,10.7355051 C74.1290812,14.7297218 71.6777009,16.9935552 67.8419473,16.9935552" id="Fill-1"></path>
                    <polygon id="Fill-3" points="90.0486711 17.0367954 80.2658188 6.6999285 80.2658188 16.7375621 77.6018188 16.7375621 77.6018188 0.868795015 78.0286216 0.78341168 87.6832767 10.9714453 87.6832767 1.08264502 90.3472768 1.08264502 90.3472768 16.9725621"></polygon>
                    <polygon id="Fill-7" points="94.1178379 16.7370921 96.7818379 16.7370921 96.7818379 1.082175 94.1178379 1.082175"></polygon>
                    <polygon id="Fill-8" points="106.351212 16.9510979 106.010395 16.9510979 98.7852328 1.0823317 101.833043 1.0823317 106.223015 11.5045814 110.592663 1.0823317 113.555268 1.0823317"></polygon>
                    <polygon id="Fill-9" points="115.471972 16.7376405 115.471972 1.08272334 124.999212 1.08272334 124.999212 3.51732341 118.135972 3.51732341 118.135972 7.61807354 124.338683 7.61807354 124.338683 9.96729027 118.135972 9.96729027 118.135972 14.3030404 124.999212 14.3030404 124.999212 16.7376405"></polygon>
                    <path d="M132.862313,3.36786322 C132.223672,3.36786322 131.605355,3.38901322 131.072243,3.49632989 L131.072243,8.83553006 C131.562362,8.89976339 132.096257,8.92091339 132.6067,8.92091339 C134.930665,8.92091339 136.1032,7.83129669 136.1032,6.0374633 C136.1032,4.45747992 134.907996,3.36786322 132.862313,3.36786322 L132.862313,3.36786322 Z M136.869257,16.7377964 L133.460306,11.0993632 C133.182806,11.1205132 132.926412,11.1205132 132.627806,11.1205132 C132.116581,11.1205132 131.58425,11.0993632 131.072243,11.0774298 L131.072243,16.7377964 L128.408243,16.7377964 L128.408243,1.23171329 C129.644095,1.08287996 130.944046,0.975563296 132.521496,0.975563296 C136.954461,0.975563296 138.91494,3.13286327 138.91494,5.90899657 C138.91494,7.93861321 137.807285,9.58282985 135.867912,10.4374465 L139.96006,16.7377964 L136.869257,16.7377964 Z" id="Fill-10"></path>
                    <path d="M145.862446,16.9935545 C144.094263,16.9935545 142.325298,16.3527879 140.960467,15.4558712 L141.876608,13.0643546 C143.113242,13.9612713 144.605488,14.5166546 145.94765,14.5166546 C147.589199,14.5166546 148.313045,13.5555046 148.313045,12.465888 C148.313045,11.3762714 147.844812,10.6932047 145.372326,9.64667141 C142.644228,8.49360478 141.663988,7.08360482 141.663988,5.20438821 C141.663988,2.94055494 143.539263,0.825555003 146.800474,0.825555003 C148.313045,0.825555003 149.805291,1.33863832 150.721432,1.95747164 L149.86939,4.30747157 C149.038453,3.73015492 147.801819,3.19670493 146.736376,3.19670493 C145.09639,3.19670493 144.327206,4.09362157 144.327206,5.14015488 C144.327206,6.18668818 145.09639,6.80630483 147.034981,7.66013813 C150.125002,9.00590476 151.021601,10.2662881 151.021601,12.3162713 C151.021601,14.8362546 149.081446,16.9935545 145.862446,16.9935545" id="Fill-12"></path>
                    <polygon id="Fill-14" points="153.939021 16.7370921 156.603021 16.7370921 156.603021 1.082175 153.939021 1.082175"></polygon>
                    <polygon id="Fill-16" points="166.832213 3.51740176 166.832213 16.7377188 164.168995 16.7377188 164.168995 3.51740176 159.202917 3.51740176 159.202917 1.08280168 171.777185 1.08280168 171.777185 3.51740176"></polygon>
                    <polygon id="Fill-17" points="181.047646 10.1592853 181.047646 16.7377188 178.384428 16.7377188 178.384428 10.1381353 172.885238 1.08280168 175.932266 1.08280168 179.76802 7.70353522 183.563125 1.08280168 186.546055 1.08280168"></polygon>
                    <path d="M201.037255,3.21824656 C198.053544,3.21824656 195.986755,5.65362997 195.986755,8.92091339 C195.986755,12.1670468 198.053544,14.6235802 201.037255,14.6235802 C203.999861,14.6235802 206.068213,12.1670468 206.068213,8.92091339 C206.068213,5.65362997 203.999861,3.21824656 201.037255,3.21824656 M200.952832,16.9939462 C196.433882,16.9939462 193.130459,13.5558963 193.130459,8.92091307 C193.130459,4.26477987 196.583185,0.825946641 201.101353,0.825946641 C205.619522,0.825946641 208.922945,4.26477987 208.922945,8.92091307 C208.922945,13.5558963 205.470219,16.9939462 200.952832,16.9939462" id="Fill-18"></path>
                    <polygon id="Fill-19" points="214.719893 3.51740176 214.719893 8.0881519 220.750633 8.0881519 220.750633 10.4585186 214.719893 10.4585186 214.719893 16.7377188 212.055111 16.7377188 212.055111 1.08280168 221.581569 1.08280168 221.581569 3.51740176"></polygon>
                    <path d="M73.167914,46.3169335 C66.2366675,46.3169335 61.5394915,41.6380836 61.5394915,35.3306837 C61.5394915,28.9958671 66.2366675,24.3178005 73.167914,24.3178005 C75.6333647,24.3178005 77.8947943,25.0439505 79.8091534,26.1774338 L78.3012731,30.3627837 C76.7347661,29.4901504 74.9658013,28.9379004 73.2257591,28.9379004 C69.2532098,28.9379004 66.7877591,31.3795504 66.7877591,35.3306837 C66.7877591,39.284167 69.2532098,41.7250336 73.2257591,41.7250336 C74.9658013,41.7250336 76.9380055,41.1445836 78.5326534,40.1552336 L80.0123928,44.3398002 C78.1558788,45.5610169 75.6036605,46.3169335 73.167914,46.3169335" id="Fill-20"></path>
                    <path d="M91.0883964,33.2102007 L88.9715795,38.3245839 L93.1770725,38.3245839 L91.0883964,33.2102007 Z M96.3374459,45.9683504 L94.742798,42.1026005 L87.4058543,42.1026005 L85.8104247,45.9683504 L80.7935373,45.9683504 L90.7983895,24.4917006 L91.4651712,24.4917006 L101.470023,45.9683504 L96.3374459,45.9683504 Z" id="Fill-21"></path>
                    <polygon id="Fill-22" points="121.392646 46.3754481 108.574491 34.8385148 108.574491 45.9681147 103.643589 45.9681147 103.643589 24.3755316 104.311153 24.2595982 116.954991 35.7087981 116.954991 24.6669316 121.885111 24.6669316 121.885111 46.2877147"></polygon>
                    <path d="M133.308815,36.8423598 C132.556047,36.8423598 131.946329,36.8713431 131.453082,36.9300931 L131.453082,41.8705766 C132.15035,41.9285433 132.526343,41.9575266 133.512054,41.9575266 C136.006428,41.9575266 137.19616,40.9979432 137.19616,39.3999432 C137.19616,37.7729598 135.918878,36.8423598 133.308815,36.8423598 M133.686371,28.7638433 C132.787427,28.7638433 132.15035,28.8515767 131.453082,28.96751 L131.453082,33.4137099 C132.004956,33.4708933 132.380949,33.5006599 133.280674,33.5006599 C135.658575,33.5006599 136.846744,32.62881 136.846744,31.08956 C136.846744,29.8095933 135.774266,28.7638433 133.686371,28.7638433 M133.018808,46.171076 C131.163075,46.171076 128.756251,45.997176 126.668357,45.7347594 L126.668357,24.9278598 C128.20516,24.6952099 130.87385,24.4625599 132.613111,24.4625599 C138.790026,24.4625599 141.92304,27.2238098 141.92304,30.1879431 C141.92304,32.425143 140.675462,33.9369763 138.26942,34.9247596 C141.168709,35.7966096 142.531195,37.4815596 142.531195,39.9232095 C142.531195,43.2359261 139.399744,46.171076 133.018808,46.171076" id="Fill-23"></path>
                    <polygon id="Fill-24" points="146.358657 45.9681159 146.358657 24.666149 159.813889 24.666149 159.813889 29.2000824 151.287994 29.2000824 151.287994 33.0062991 159.060339 33.0062991 159.060339 37.3075825 151.287994 37.3075825 151.287994 41.4639492 159.813889 41.4639492 159.813889 45.9681159"></polygon>
                    <path d="M171.181156,28.9382133 C170.426825,28.9382133 169.962501,28.9671966 169.267578,29.08313 L169.267578,34.9534299 C169.905437,35.0121799 170.253289,35.0411632 170.834085,35.0411632 C173.182282,35.0411632 174.690163,33.9076799 174.690163,31.7574299 C174.690163,29.9847466 173.297191,28.9382133 171.181156,28.9382133 L171.181156,28.9382133 Z M175.560183,45.9686627 L171.935486,39.0228463 C171.645479,39.0510463 171.385177,39.0510463 171.094388,39.0510463 C170.368979,39.0510463 169.9625,39.0228463 169.267578,38.9930796 L169.267578,45.9686627 L164.337458,45.9686627 L164.337458,24.8703634 C166.134564,24.6666967 168.106768,24.5209967 170.601923,24.5209967 C177.213458,24.5209967 179.823521,27.6887966 179.823521,31.5827465 C179.823521,34.1121297 178.461036,36.3775297 176.169902,37.743663 L181.157867,45.9686627 L175.560183,45.9686627 Z" id="Fill-25"></path>
                    <path d="M190.782892,28.9382133 C190.029343,28.9382133 189.565019,28.9671966 188.870878,29.08313 L188.870878,34.9534299 C189.507174,35.0121799 189.855026,35.0411632 190.435822,35.0411632 C192.784801,35.0411632 194.291899,33.9076799 194.291899,31.7574299 C194.291899,29.9847466 192.900491,28.9382133 190.782892,28.9382133 L190.782892,28.9382133 Z M195.163484,45.9686627 L191.537223,39.0228463 C191.247998,39.0510463 190.986913,39.0510463 190.696906,39.0510463 C189.971498,39.0510463 189.565019,39.0228463 188.870878,38.9930796 L188.870878,45.9686627 L183.939195,45.9686627 L183.939195,24.8703634 C185.737082,24.6666967 187.709287,24.5209967 190.20366,24.5209967 C196.815976,24.5209967 199.42604,27.6887966 199.42604,31.5827465 C199.42604,34.1121297 198.062772,36.3775297 195.770857,37.743663 L200.759603,45.9686627 L195.163484,45.9686627 Z" id="Fill-26"></path>
                    <path d="M211.198457,33.2102007 L209.08164,38.3245839 L213.287133,38.3245839 L211.198457,33.2102007 Z M216.447507,45.9683504 L214.852077,42.1026005 L207.515915,42.1026005 L205.920486,45.9683504 L200.903598,45.9683504 L210.909232,24.4917006 L211.57445,24.4917006 L221.580084,45.9683504 L216.447507,45.9683504 Z" id="Fill-27"></path>
                    <path d="M28.1566349,31.3612986 C26.7159801,30.7291486 25.1283674,30.3735152 23.457114,30.3735152 C21.7866422,30.3735152 20.1990296,30.7291486 18.7583747,31.3612986 C18.9123676,29.7930652 18.759938,28.1692152 18.2432409,26.5766986 C17.7273254,24.9849652 16.8987339,23.5820152 15.8536142,22.4038819 C17.390417,22.0662652 18.8834451,21.4184486 20.2342056,20.4345819 C21.5638605,19.4663819 22.6480647,18.2529986 23.457114,16.8751152 C24.2661632,18.2529986 25.3495857,19.4663819 26.6792406,20.4345819 C28.0104589,21.4035652 29.4972335,22.0639152 31.0567053,22.4085819 C30.0139307,23.5851486 29.1869025,24.9873152 28.670987,26.5766986 C28.1550716,28.1692152 28.0018603,29.7930652 28.1566349,31.3612986 L28.1566349,31.3612986 Z M46.7319371,20.6492149 C45.740754,19.9355982 44.6526414,19.3833482 43.4980851,19.0073482 C43.1345992,18.8890649 42.7695499,18.7927149 42.4045006,18.7112482 C42.653078,18.4292482 42.8907118,18.1347149 43.1142752,17.8260816 C43.82874,16.8414316 44.3853034,15.7533816 44.7675498,14.5924816 L44.837902,14.3786316 L40.6464795,11.326765 L40.5784725,11.8382816 C40.4244795,12.9905649 39.9804795,14.0997649 39.2949373,15.0452483 C38.1888457,16.5711816 36.5566768,17.5730649 34.6978176,17.8683816 C32.8405219,18.1652649 30.9769726,17.7148482 29.455022,16.6072149 C27.9322896,15.4987983 26.9317262,13.8624149 26.6378108,12.0004316 C26.3431136,10.137665 26.791022,8.27176497 27.8963319,6.74661498 C28.5818741,5.80113165 29.4972332,5.03581499 30.5439163,4.53291499 L31.0074586,4.30966499 L26.8160361,1.25779835 L26.6354657,1.39096501 C25.6520995,2.11398167 24.790677,2.98034834 24.0769939,3.96578166 C23.8534305,4.27363166 23.6486277,4.59009833 23.4571136,4.91361499 C23.2663812,4.59009833 23.0607967,4.27363166 22.8372334,3.96578166 C22.1235503,2.98034834 21.2629094,2.11398167 20.2795433,1.39096501 L20.0981912,1.25779835 L15.9075504,4.30966499 L16.3710926,4.53291499 C17.4177757,5.03581499 18.3331349,5.80113165 19.0186771,6.74661498 C20.1239869,8.27176497 20.5711137,10.137665 20.2771982,12.0004316 C19.982501,13.8624149 18.9819377,15.4987983 17.4592053,16.6072149 C15.9372546,17.7148482 14.0744871,18.1629149 12.2164096,17.8683816 C10.3583322,17.5730649 8.72538152,16.5711816 7.61928999,15.0452483 C6.93374775,14.0997649 6.49052945,12.9905649 6.3365365,11.8382816 L6.26931115,11.326765 L2.077107,14.3786316 L2.14745911,14.5924816 C2.52892389,15.7525983 3.08548726,16.8406483 3.79995204,17.8260816 C4.0250788,18.1362816 4.26583935,18.4284649 4.51441681,18.7104649 C4.14780415,18.7919316 3.78119148,18.8882816 3.41692388,19.0073482 C2.26236756,19.3833482 1.17425491,19.9355982 0.183071827,20.6492149 L0.000156338024,20.7808149 L1.60183941,25.7189482 L1.95750841,25.3452982 C2.7579591,24.5032149 3.76712105,23.8671482 4.87633934,23.5068149 C8.56982519,22.3043982 12.5525364,24.3379315 13.7532124,28.0391815 C14.9531068,31.7412148 12.9238392,35.7315148 9.23035334,36.9347148 C8.12035336,37.2950481 6.93140268,37.3757315 5.7901351,37.1657981 L5.2835999,37.0733648 L6.88528297,42.0114981 L7.10962803,42.0107148 C8.33062801,42.0044481 9.53521249,41.8101814 10.6889871,41.4341814 C11.052473,41.3158981 11.4050153,41.1788148 11.7481772,41.0291981 C11.7130012,41.4028481 11.6911139,41.7811981 11.6911139,42.1642481 C11.6911139,43.3823314 11.8795012,44.5902314 12.2500223,45.7542648 L12.318811,45.9681147 L17.5006349,45.9681147 L17.2551842,45.5137814 C16.7040926,44.4907481 16.4125222,43.3329814 16.4125222,42.1642481 C16.4125222,38.2718648 19.5728954,35.1048481 23.4571136,35.1048481 C27.3421136,35.1048481 30.5024867,38.2718648 30.5024867,42.1642481 C30.5024867,43.3329814 30.2109163,44.4907481 29.6598248,45.5137814 L29.4135924,45.9681147 L34.5954162,45.9681147 L34.664205,45.7542648 C35.0355078,44.5886648 35.2238951,43.3807648 35.2238951,42.1642481 C35.2238951,41.7811981 35.2020078,41.4028481 35.16605,41.0291981 C35.5099937,41.1788148 35.8625359,41.3158981 36.2260218,41.4341814 C37.3813598,41.8109648 38.5859443,42.0044481 39.8053809,42.0107148 L40.029726,42.0114981 L41.6306274,37.0733648 L41.1240922,37.1657981 C39.9836063,37.3757315 38.7938739,37.2950481 37.6846556,36.9347148 C33.9911698,35.7315148 31.9619022,31.7412148 33.1617965,28.0391815 C34.3616909,24.3379315 38.3428387,22.3043982 42.0386696,23.5068149 C43.1471062,23.8671482 44.1570499,24.5032149 44.9575005,25.3452982 L45.3131695,25.7189482 L46.9140709,20.7808149 L46.7319371,20.6492149 Z" id="Fill-28"></path>
                </g>
            </g>
        </g>
    </g>
</svg>